<svg width="14" height="14" viewBox="0 0 14 14" fill="none" xmlns="http://www.w3.org/2000/svg">
<path d="M13.4163 5.8335C13.4163 5.52408 13.2934 5.22733 13.0746 5.00854C12.8558 4.78975 12.5591 4.66683 12.2497 4.66683H8.56301L9.12301 2.001C9.13468 1.94266 9.14051 1.8785 9.14051 1.81433C9.14051 1.57516 9.04134 1.3535 8.88384 1.196L8.26551 0.583496L4.42717 4.42183C4.21134 4.63766 4.08301 4.92933 4.08301 5.25016V11.0835C4.08301 11.3929 4.20592 11.6897 4.42472 11.9085C4.64351 12.1272 4.94026 12.2502 5.24967 12.2502H10.4997C10.9838 12.2502 11.398 11.9585 11.573 11.5385L13.3347 7.426C13.3872 7.29183 13.4163 7.15183 13.4163 7.00016V5.8335ZM0.583008 12.2502H2.91634V5.25016H0.583008V12.2502Z" fill="#939393"/>
</svg>
