<svg width="23" height="23" viewBox="0 0 23 23" fill="none" xmlns="http://www.w3.org/2000/svg">
<path d="M15.9922 2.875C14.1369 2.875 12.5125 3.67281 11.5 5.02137C10.4875 3.67281 8.86309 2.875 7.00781 2.875C5.53098 2.87666 4.11512 3.46407 3.07085 4.50835C2.02657 5.55262 1.43916 6.96848 1.4375 8.44531C1.4375 14.7344 10.7624 19.8249 11.1595 20.0352C11.2642 20.0915 11.3812 20.1209 11.5 20.1209C11.6188 20.1209 11.7358 20.0915 11.8405 20.0352C12.2376 19.8249 21.5625 14.7344 21.5625 8.44531C21.5608 6.96848 20.9734 5.55262 19.9292 4.50835C18.8849 3.46407 17.469 2.87666 15.9922 2.875ZM11.5 18.5797C9.85945 17.6237 2.875 13.269 2.875 8.44531C2.87643 7.34966 3.3123 6.29929 4.08705 5.52455C4.86179 4.7498 5.91216 4.31393 7.00781 4.3125C8.75527 4.3125 10.2224 5.24328 10.8352 6.73828C10.8893 6.87011 10.9814 6.98286 11.0998 7.06221C11.2182 7.14156 11.3575 7.18393 11.5 7.18393C11.6425 7.18393 11.7818 7.14156 11.9002 7.06221C12.0186 6.98286 12.1107 6.87011 12.1648 6.73828C12.7776 5.24059 14.2447 4.3125 15.9922 4.3125C17.0878 4.31393 18.1382 4.7498 18.913 5.52455C19.6877 6.29929 20.1236 7.34966 20.125 8.44531C20.125 13.2618 13.1388 17.6229 11.5 18.5797Z" fill="black"/>
</svg>
