<svg width="56" height="49" viewBox="0 0 56 49" fill="none" xmlns="http://www.w3.org/2000/svg">
<path d="M39.0691 14.5566L45.1679 35.8163L29.7148 33.5881L39.0691 14.5566Z" fill="#F79329"/>
<path d="M45.1698 36.3735C45.1485 36.3735 45.1273 36.3735 45.106 36.3687L29.6487 34.1406C29.483 34.1169 29.3427 34.0034 29.2662 33.8378C29.1897 33.6722 29.194 33.4783 29.2705 33.3174L38.629 14.2859C38.7268 14.092 38.9223 13.9785 39.1178 13.9974C39.3175 14.0163 39.4875 14.1677 39.547 14.3806L45.599 35.4888C45.6585 35.5787 45.6925 35.6922 45.6925 35.8105C45.6925 36.118 45.4673 36.3687 45.191 36.3687C45.191 36.3735 45.1783 36.3735 45.1698 36.3735ZM30.503 33.1377L44.4515 35.1482L38.952 15.9653L30.503 33.1377ZM17.2387 7.23724C17.2387 7.92228 16.9942 8.57927 16.559 9.06366C16.1238 9.54806 15.5336 9.82019 14.9182 9.82019C13.6389 9.82019 12.5977 8.66118 12.5977 7.23724C12.5977 5.80858 13.6347 4.6543 14.9182 4.6543C16.2017 4.6543 17.2387 5.80858 17.2387 7.23724Z" fill="#F79329"/>
<path d="M14.9177 10.3751C14.1696 10.3739 13.4525 10.0425 12.9235 9.4537C12.3945 8.86488 12.0968 8.06665 12.0957 7.23394C12.0968 6.40124 12.3945 5.60299 12.9235 5.01418C13.4525 4.42537 14.1696 4.09402 14.9177 4.09277C15.6658 4.09402 16.3829 4.42537 16.9119 5.01418C17.4409 5.60299 17.7386 6.40124 17.7397 7.23394C17.7386 8.06665 17.4409 8.86488 16.9119 9.4537C16.3829 10.0425 15.6658 10.3739 14.9177 10.3751ZM14.9177 5.21394C13.9147 5.21394 13.0987 6.12223 13.0987 7.23867C13.0987 8.35511 13.9147 9.2634 14.9177 9.2634C15.9207 9.2634 16.741 8.35511 16.741 7.23867C16.741 6.12223 15.9207 5.21394 14.9177 5.21394ZM39.9291 4.65572C41.2083 4.74088 42.1858 5.96612 42.1093 7.39005C42.0371 8.81398 40.9321 9.89731 39.6571 9.81689C39.3527 9.79746 39.0549 9.71139 38.7805 9.5636C38.5061 9.41582 38.2606 9.20923 38.0581 8.95566C37.8555 8.7021 37.6999 8.40655 37.6002 8.08594C37.5005 7.76533 37.4585 7.42597 37.4768 7.08729C37.5533 5.65863 38.6498 4.57057 39.9291 4.65572Z" fill="#F79329"/>
<path d="M39.7923 10.3772L39.6265 10.3725C38.8743 10.3252 38.1815 9.95145 37.6843 9.327C37.4373 9.01928 37.2475 8.66024 37.1257 8.27054C37.0039 7.88083 36.9525 7.46817 36.9745 7.05628C37.0175 6.25667 37.333 5.50547 37.8567 4.956C38.3803 4.40653 39.0726 4.10023 39.7923 4.09961L39.958 4.10434C41.5135 4.20841 42.7035 5.70331 42.61 7.43C42.5659 8.22829 42.2497 8.97774 41.7261 9.52542C41.2025 10.0731 40.5108 10.3778 39.7923 10.3772ZM39.89 5.21132C38.8275 5.21132 38.0328 6.04865 37.9775 7.11778C37.9478 7.65708 38.1093 8.17745 38.4323 8.58429C38.7553 8.99112 39.1973 9.22766 39.686 9.26077L39.7923 9.2655C40.7528 9.2655 41.5518 8.42817 41.607 7.35904C41.6665 6.2426 40.8973 5.28228 39.8943 5.21132H39.89ZM15.6394 14.5591L9.54492 35.8188L24.998 33.5906L15.6394 14.5591Z" fill="#F79329"/>
<path d="M9.54543 36.3765C9.40093 36.3765 9.25643 36.3056 9.15868 36.1779C9.04818 36.0312 9.01418 35.8325 9.06518 35.6528L15.1597 14.3931C15.2192 14.1802 15.3892 14.0289 15.589 14.0099C15.8057 13.9863 15.98 14.0998 16.0777 14.2985L25.4362 33.33C25.5127 33.4908 25.517 33.6848 25.4405 33.8504C25.3682 34.0159 25.2237 34.1247 25.058 34.1531L9.60493 36.3813C9.58793 36.3765 9.56668 36.3765 9.54543 36.3765ZM15.7632 15.9684L10.2594 35.156L24.208 33.1455L15.7632 15.9684Z" fill="#F79329"/>
<path d="M39.0691 14.5566L45.1679 35.8163L29.7148 33.5881L39.0691 14.5566Z" fill="#F79329"/>
<path d="M45.1698 36.3735C45.1485 36.3735 45.1273 36.3735 45.106 36.3687L29.6487 34.1406C29.483 34.1169 29.3427 34.0034 29.2662 33.8378C29.1897 33.6722 29.194 33.4783 29.2705 33.3174L38.629 14.2859C38.7268 14.092 38.9223 13.9785 39.1178 13.9974C39.3175 14.0163 39.4875 14.1677 39.547 14.3806L45.599 35.4888C45.6585 35.5787 45.6925 35.6922 45.6925 35.8105C45.6925 36.118 45.4673 36.3687 45.191 36.3687C45.191 36.3735 45.1783 36.3735 45.1698 36.3735ZM30.503 33.1377L44.4515 35.1482L38.952 15.9653L30.503 33.1377ZM17.2387 7.23724C17.2387 7.92228 16.9942 8.57927 16.559 9.06366C16.1238 9.54806 15.5336 9.82019 14.9182 9.82019C13.6389 9.82019 12.5977 8.66118 12.5977 7.23724C12.5977 5.80858 13.6347 4.6543 14.9182 4.6543C16.2017 4.6543 17.2387 5.80858 17.2387 7.23724Z" fill="#F79329"/>
<path d="M14.9177 10.3751C14.1696 10.3739 13.4525 10.0425 12.9235 9.4537C12.3945 8.86488 12.0968 8.06665 12.0957 7.23394C12.0968 6.40124 12.3945 5.60299 12.9235 5.01418C13.4525 4.42537 14.1696 4.09402 14.9177 4.09277C15.6658 4.09402 16.3829 4.42537 16.9119 5.01418C17.4409 5.60299 17.7386 6.40124 17.7397 7.23394C17.7386 8.06665 17.4409 8.86488 16.9119 9.4537C16.3829 10.0425 15.6658 10.3739 14.9177 10.3751ZM14.9177 5.21394C13.9147 5.21394 13.0987 6.12223 13.0987 7.23867C13.0987 8.35511 13.9147 9.2634 14.9177 9.2634C15.9207 9.2634 16.741 8.35511 16.741 7.23867C16.741 6.12223 15.9207 5.21394 14.9177 5.21394ZM39.9291 4.65572C41.2083 4.74088 42.1858 5.96612 42.1093 7.39005C42.0371 8.81398 40.9321 9.89731 39.6571 9.81689C39.3527 9.79746 39.0549 9.71139 38.7805 9.5636C38.5061 9.41582 38.2606 9.20923 38.0581 8.95566C37.8555 8.7021 37.6999 8.40655 37.6002 8.08594C37.5005 7.76533 37.4585 7.42597 37.4768 7.08729C37.5533 5.65863 38.6498 4.57057 39.9291 4.65572Z" fill="#F79329"/>
<path d="M39.7923 10.3772L39.6265 10.3725C38.8743 10.3252 38.1815 9.95145 37.6843 9.327C37.4373 9.01928 37.2475 8.66024 37.1257 8.27054C37.0039 7.88083 36.9525 7.46817 36.9745 7.05628C37.0175 6.25667 37.333 5.50547 37.8567 4.956C38.3803 4.40653 39.0726 4.10023 39.7923 4.09961L39.958 4.10434C41.5135 4.20841 42.7035 5.70331 42.61 7.43C42.5659 8.22829 42.2497 8.97774 41.7261 9.52542C41.2025 10.0731 40.5108 10.3778 39.7923 10.3772ZM39.89 5.21132C38.8275 5.21132 38.0328 6.04865 37.9775 7.11778C37.9478 7.65708 38.1093 8.17745 38.4323 8.58429C38.7553 8.99112 39.1973 9.22766 39.686 9.26077L39.7923 9.2655C40.7528 9.2655 41.5518 8.42817 41.607 7.35904C41.6665 6.2426 40.8973 5.28228 39.8943 5.21132H39.89ZM15.6394 14.5591L9.54492 35.8188L24.998 33.5906L15.6394 14.5591Z" fill="#F79329"/>
<path d="M9.54543 36.3765C9.40093 36.3765 9.25643 36.3056 9.15868 36.1779C9.04818 36.0312 9.01418 35.8325 9.06518 35.6528L15.1597 14.3931C15.2192 14.1802 15.3892 14.0289 15.589 14.0099C15.8057 13.9863 15.98 14.0998 16.0777 14.2985L25.4362 33.33C25.5127 33.4908 25.517 33.6848 25.4405 33.8504C25.3682 34.0159 25.2237 34.1247 25.058 34.1531L9.60493 36.3813C9.58793 36.3765 9.56668 36.3765 9.54543 36.3765ZM15.7632 15.9684L10.2594 35.156L24.208 33.1455L15.7632 15.9684Z" fill="#F79329"/>
<path d="M31.6014 3.99736C31.6014 6.20398 29.988 7.99472 28 7.99472C26.012 7.99472 24.3942 6.20398 24.3942 3.99736C24.3942 1.78585 26.0076 0 28 0C29.9924 0 31.6014 1.78585 31.6014 3.99736ZM5.71725 7.00638C5.71725 8.75798 4.43892 10.1769 2.85642 10.1769C1.27834 10.1769 0 8.75798 0 7.00638C0 5.2499 1.27834 3.83101 2.85642 3.83101C4.43892 3.83101 5.71725 5.2499 5.71725 7.00638ZM50.2783 7.00638C50.2783 8.75798 51.5567 10.1769 53.1392 10.1769C54.7173 10.1769 56 8.75798 56 7.00638C56 6.16422 55.6986 5.35655 55.1621 4.76105C54.6256 4.16555 53.8979 3.83101 53.1392 3.83101C52.3804 3.83101 51.6528 4.16555 51.1163 4.76105C50.5797 5.35655 50.2783 6.16422 50.2783 7.00638Z" fill="#FCC21B"/>
<path d="M31.6014 3.99736C31.6014 6.20398 29.988 7.99472 28 7.99472C26.012 7.99472 24.3942 6.20398 24.3942 3.99736C24.3942 1.78585 26.0076 0 28 0C29.9924 0 31.6014 1.78585 31.6014 3.99736ZM5.71725 7.00638C5.71725 8.75798 4.43892 10.1769 2.85642 10.1769C1.27834 10.1769 0 8.75798 0 7.00638C0 5.2499 1.27834 3.83101 2.85642 3.83101C4.43892 3.83101 5.71725 5.2499 5.71725 7.00638ZM50.2783 7.00638C50.2783 8.75798 51.5567 10.1769 53.1392 10.1769C54.7173 10.1769 56 8.75798 56 7.00638C56 6.16422 55.6986 5.35655 55.1621 4.76105C54.6256 4.16555 53.8979 3.83101 53.1392 3.83101C52.3804 3.83101 51.6528 4.16555 51.1163 4.76105C50.5797 5.35655 50.2783 6.16422 50.2783 7.00638Z" fill="#FCC21B"/>
<path d="M51.1438 17.2287C51.0548 17.1847 50.9562 17.171 50.8602 17.1891C50.7643 17.2073 50.6753 17.2566 50.6046 17.3308L37.6637 30.8169L28.4304 15.5069C28.3384 15.3538 28.1879 15.2656 28.0208 15.2656C27.8577 15.2656 27.7031 15.3538 27.6111 15.5023L18.336 30.8169L5.39932 17.3261C5.32855 17.2519 5.23959 17.2027 5.14364 17.1845C5.04769 17.1663 4.94904 17.1801 4.86012 17.224C4.68039 17.3122 4.56335 17.5164 4.57171 17.7345L5.10255 39.7875C5.10255 44.5814 15.1593 48.3405 27.9999 48.3405C40.8404 48.3405 50.8972 44.5814 50.8972 39.8014L51.428 17.7345C51.4364 17.521 51.3235 17.3168 51.1438 17.2287Z" fill="#FCC21B"/>
<mask id="mask0_2139_1137" style="mask-type:luminance" maskUnits="userSpaceOnUse" x="4" y="14" width="48" height="34">
<path d="M51.3688 16.0021C51.2783 15.9572 51.178 15.9432 51.0805 15.9617C50.9829 15.9803 50.8925 16.0305 50.8205 16.1061L37.6625 29.8535L28.2742 14.247C28.1807 14.0909 28.0277 14.001 27.8577 14.001C27.6919 14.001 27.5347 14.0909 27.4412 14.2422L18.0104 29.8535L4.85658 16.1014C4.78462 16.0258 4.69416 15.9755 4.5966 15.957C4.49904 15.9385 4.39874 15.9525 4.30833 15.9973C4.12558 16.0872 4.00658 16.2954 4.01508 16.5177L4.55483 38.9978C4.55483 43.8846 14.7804 47.7165 27.8364 47.7165C40.8925 47.7165 51.118 43.8846 51.118 39.012L51.6578 16.5177C51.6663 16.3001 51.5515 16.0919 51.3688 16.0021Z" fill="white"/>
</mask>
<g mask="url(#mask0_2139_1137)">
<path d="M51.5427 27.6528L51.547 27.6575L51.2962 36.5748H51.292C49.507 36.5133 48.1214 34.4697 48.1894 32.005C48.2575 29.5356 49.7577 27.5913 51.5427 27.6528ZM4.13804 27.6528L4.13379 27.6575L4.38029 36.5748H4.38879C6.16955 36.5133 7.5593 34.4697 7.48705 32.005C7.41905 29.5356 5.9188 27.5913 4.13804 27.6528Z" fill="#D7598B"/>
</g>
<path d="M31.6014 3.99736C31.6014 6.20398 29.988 7.99472 28 7.99472C26.012 7.99472 24.3942 6.20398 24.3942 3.99736C24.3942 1.78585 26.0076 0 28 0C29.9924 0 31.6014 1.78585 31.6014 3.99736ZM5.71725 7.00638C5.71725 8.75798 4.43892 10.1769 2.85642 10.1769C1.27834 10.1769 0 8.75798 0 7.00638C0 5.2499 1.27834 3.83101 2.85642 3.83101C4.43892 3.83101 5.71725 5.2499 5.71725 7.00638ZM50.2783 7.00638C50.2783 8.75798 51.5567 10.1769 53.1392 10.1769C54.7173 10.1769 56 8.75798 56 7.00638C56 6.16422 55.6986 5.35655 55.1621 4.76105C54.6256 4.16555 53.8979 3.83101 53.1392 3.83101C52.3804 3.83101 51.6528 4.16555 51.1163 4.76105C50.5797 5.35655 50.2783 6.16422 50.2783 7.00638Z" fill="#FCC21B"/>
<path d="M30.8571 36.2551C30.8571 38.7125 29.3219 40.7075 27.4266 40.7075C25.5352 40.7075 24 38.7125 24 36.2551C24 33.7933 25.5352 31.8027 27.4266 31.8027C29.3219 31.7983 30.8571 33.7933 30.8571 36.2551Z" fill="#D7598B"/>
<path d="M38.7904 39.0411C38.7352 40.3184 37.8894 41.3071 36.9034 41.2551C35.9216 41.203 35.1694 40.1197 35.2289 38.8471C35.2884 37.5651 36.1341 36.5764 37.1159 36.6332C38.0976 36.6805 38.8457 37.7638 38.7904 39.0411Z" fill="#ED6C30"/>
<path d="M46.1559 37.6411C46.2157 36.3652 45.4661 35.2845 44.4816 35.2274C43.4971 35.1702 42.6505 36.1581 42.5907 37.434C42.5309 38.7098 43.2805 39.7905 44.265 39.8477C45.2495 39.9049 46.0961 38.9169 46.1559 37.6411Z" fill="#ED6C30"/>
<path d="M16.889 39.0421C16.9443 40.3194 17.79 41.3081 18.7761 41.256C19.7578 41.204 20.5101 40.1207 20.4506 38.8481C20.3953 37.5661 19.5496 36.5774 18.5678 36.6342C17.5818 36.6815 16.8295 37.7648 16.889 39.0421Z" fill="#ED6C30"/>
<path d="M11.4129 39.8432C12.395 39.7861 13.1427 38.7056 13.0829 37.4298C13.0231 36.1539 12.1785 35.1658 11.1963 35.2229C10.2142 35.2799 9.46645 36.3605 9.52627 37.6363C9.58608 38.9122 10.4308 39.9002 11.4129 39.8432Z" fill="#ED6C30"/>
</svg>
