<svg width="42" height="41" viewBox="0 0 42 41" fill="none" xmlns="http://www.w3.org/2000/svg">
<path d="M30.0433 16.1377L34.7519 30.5325L22.8213 29.0239L30.0433 16.1377Z" fill="#996228"/>
<path d="M34.751 30.9105C34.7346 30.9105 34.7182 30.9105 34.7018 30.9073L22.7679 29.3987C22.6399 29.3827 22.5316 29.3058 22.4726 29.1937C22.4135 29.0816 22.4168 28.9502 22.4759 28.8413L29.7012 15.9552C29.7766 15.8238 29.9276 15.747 30.0785 15.7598C30.2327 15.7726 30.364 15.8751 30.4099 16.0192L35.0824 30.3116C35.1284 30.3724 35.1546 30.4493 35.1546 30.5294C35.1546 30.7376 34.9807 30.9073 34.7674 30.9073C34.7674 30.9105 34.7576 30.9105 34.751 30.9105ZM23.4274 28.7196L34.1965 30.0809L29.9505 17.0923L23.4274 28.7196ZM13.1866 11.1825C13.1866 11.6463 12.9979 12.0912 12.6619 12.4192C12.3259 12.7471 11.8702 12.9314 11.3951 12.9314C10.4074 12.9314 9.60352 12.1466 9.60352 11.1825C9.60352 10.2152 10.4041 9.43359 11.3951 9.43359C12.386 9.43359 13.1866 10.2152 13.1866 11.1825Z" fill="#996228"/>
<path d="M11.3955 13.306C10.818 13.3051 10.2643 13.0808 9.8559 12.6821C9.44749 12.2834 9.21766 11.7429 9.2168 11.1791C9.21766 10.6153 9.44749 10.0748 9.8559 9.67613C10.2643 9.27745 10.818 9.05309 11.3955 9.05225C11.9731 9.05309 12.5268 9.27745 12.9352 9.67613C13.3436 10.0748 13.5734 10.6153 13.5743 11.1791C13.5734 11.7429 13.3436 12.2834 12.9352 12.6821C12.5268 13.0808 11.9731 13.3051 11.3955 13.306ZM11.3955 9.81139C10.6212 9.81139 9.99117 10.4264 9.99117 11.1823C9.99117 11.9383 10.6212 12.5533 11.3955 12.5533C12.1699 12.5533 12.8032 11.9383 12.8032 11.1823C12.8032 10.4264 12.1699 9.81139 11.3955 9.81139ZM30.7057 9.43342C31.6934 9.49107 32.448 10.3207 32.389 11.2848C32.3332 12.249 31.4801 12.9825 30.4957 12.928C30.2608 12.9149 30.0308 12.8566 29.8189 12.7565C29.6071 12.6565 29.4176 12.5166 29.2612 12.3449C29.1048 12.1732 28.9847 11.9731 28.9077 11.756C28.8307 11.5389 28.7983 11.3091 28.8124 11.0798C28.8715 10.1125 29.718 9.37576 30.7057 9.43342Z" fill="#996228"/>
<path d="M30.6007 13.3062L30.4727 13.303C29.892 13.271 29.3571 13.0179 28.9732 12.5951C28.7825 12.3868 28.636 12.1437 28.5419 11.8798C28.4479 11.6159 28.4082 11.3365 28.4252 11.0576C28.4584 10.5162 28.702 10.0076 29.1063 9.63552C29.5106 9.26348 30.0451 9.05608 30.6007 9.05566L30.7287 9.05887C31.9296 9.12934 32.8484 10.1415 32.7762 11.3107C32.7421 11.8512 32.498 12.3586 32.0937 12.7295C31.6894 13.1003 31.1555 13.3066 30.6007 13.3062ZM30.6762 9.8084C29.8559 9.8084 29.2423 10.3754 29.1996 11.0993C29.1766 11.4644 29.3013 11.8168 29.5507 12.0922C29.8001 12.3677 30.1413 12.5279 30.5187 12.5503L30.6007 12.5535C31.3423 12.5535 31.9591 11.9865 32.0018 11.2626C32.0477 10.5067 31.4538 9.85645 30.6795 9.8084H30.6762ZM11.9534 16.1378L7.24805 30.5326L19.1787 29.0239L11.9534 16.1378Z" fill="#996228"/>
<path d="M7.24806 30.9101C7.13649 30.9101 7.02493 30.8621 6.94946 30.7756C6.86415 30.6763 6.8379 30.5418 6.87727 30.4201L11.5826 16.0252C11.6285 15.8811 11.7598 15.7786 11.914 15.7658C12.0813 15.7498 12.2159 15.8266 12.2913 15.9612L19.5167 28.8473C19.5757 28.9562 19.579 29.0876 19.5199 29.1997C19.4642 29.3118 19.3526 29.3855 19.2246 29.4047L7.29399 30.9133C7.28087 30.9101 7.26446 30.9101 7.24806 30.9101ZM12.0485 17.0919L7.79931 30.0837L18.5684 28.7224L12.0485 17.0919Z" fill="#996228"/>
<path d="M23.6805 9.21217C23.6805 10.6568 22.4796 11.8291 20.9997 11.8291C19.5199 11.8291 18.3157 10.6568 18.3157 9.21217C18.3157 7.76436 19.5166 6.59521 20.9997 6.59521C22.4829 6.59521 23.6805 7.76436 23.6805 9.21217ZM4.41301 11.1821C4.41301 12.3288 3.46145 13.2577 2.28348 13.2577C1.10879 13.2577 0.157227 12.3288 0.157227 11.1821C0.157227 10.0322 1.10879 9.10326 2.28348 9.10326C3.46145 9.10326 4.41301 10.0322 4.41301 11.1821ZM37.5832 11.1821C37.5832 12.3288 38.5347 13.2577 39.7127 13.2577C40.8874 13.2577 41.8422 12.3288 41.8422 11.1821C41.8422 10.6308 41.6179 10.102 41.2185 9.71214C40.8191 9.32228 40.2775 9.10326 39.7127 9.10326C39.1479 9.10326 38.6063 9.32228 38.2069 9.71214C37.8075 10.102 37.5832 10.6308 37.5832 11.1821Z" fill="#E3A080"/>
<path d="M23.6805 9.21217C23.6805 10.6568 22.4796 11.8291 20.9997 11.8291C19.5199 11.8291 18.3157 10.6568 18.3157 9.21217C18.3157 7.76436 19.5166 6.59521 20.9997 6.59521C22.4829 6.59521 23.6805 7.76436 23.6805 9.21217ZM4.41301 11.1821C4.41301 12.3288 3.46145 13.2577 2.28348 13.2577C1.10879 13.2577 0.157227 12.3288 0.157227 11.1821C0.157227 10.0322 1.10879 9.10326 2.28348 9.10326C3.46145 9.10326 4.41301 10.0322 4.41301 11.1821ZM37.5832 11.1821C37.5832 12.3288 38.5347 13.2577 39.7127 13.2577C40.8874 13.2577 41.8422 12.3288 41.8422 11.1821C41.8422 10.6308 41.6179 10.102 41.2185 9.71214C40.8191 9.32228 40.2775 9.10326 39.7127 9.10326C39.1479 9.10326 38.6063 9.32228 38.2069 9.71214C37.8075 10.102 37.5832 10.6308 37.5832 11.1821Z" fill="#E3A080"/>
<path d="M39.2114 17.1142C39.1416 17.0839 39.0641 17.0744 38.9888 17.0869C38.9135 17.0994 38.8437 17.1335 38.7881 17.1847L28.6294 26.4929L21.3811 15.9258C21.3089 15.8201 21.1908 15.7593 21.0595 15.7593C20.9315 15.7593 20.8101 15.8201 20.7379 15.9226L13.4569 26.4929L3.30138 17.1815C3.24583 17.1303 3.17599 17.0962 3.10067 17.0837C3.02535 17.0712 2.94791 17.0807 2.8781 17.111C2.73701 17.1719 2.64513 17.3128 2.6517 17.4633L3.06842 32.6846C3.06842 35.9934 10.9631 38.5879 21.0431 38.5879C31.1231 38.5879 39.0178 35.9934 39.0178 32.6942L39.4345 17.4633C39.4411 17.316 39.3525 17.1751 39.2114 17.1142Z" fill="#E3A080"/>
<mask id="mask0_2139_1116" style="mask-type:luminance" maskUnits="userSpaceOnUse" x="2" y="15" width="38" height="24">
<path d="M39.2114 17.1142C39.1416 17.0839 39.0641 17.0744 38.9888 17.0869C38.9135 17.0994 38.8437 17.1335 38.7881 17.1847L28.6294 26.4929L21.3811 15.9258C21.3089 15.8201 21.1908 15.7593 21.0595 15.7593C20.9315 15.7593 20.8101 15.8201 20.7379 15.9226L13.4569 26.4929L3.30138 17.1815C3.24583 17.1303 3.17599 17.0962 3.10067 17.0837C3.02535 17.0712 2.94791 17.0807 2.8781 17.111C2.73701 17.1719 2.64513 17.3128 2.6517 17.4633L3.06842 32.6846C3.06842 35.9934 10.9631 38.5879 21.0431 38.5879C31.1231 38.5879 39.0178 35.9934 39.0178 32.6942L39.4345 17.4633C39.4411 17.316 39.3525 17.1751 39.2114 17.1142Z" fill="white"/>
</mask>
<g mask="url(#mask0_2139_1116)">
<path d="M39.3455 25.0034L39.3488 25.0066L39.1552 31.0445H39.1519C37.7738 31.0029 36.7041 29.6191 36.7566 27.9503C36.8091 26.2782 37.9674 24.9618 39.3455 25.0034ZM2.74645 25.0034L2.74316 25.0066L2.93348 31.0445H2.94004C4.31488 31.0029 5.38785 29.6191 5.33207 27.9503C5.27957 26.2782 4.12129 24.9618 2.74645 25.0034Z" fill="#E95B93"/>
</g>
<path d="M23.8876 30.9264C23.8876 32.7137 22.6145 34.1647 21.0427 34.1647C19.4743 34.1647 18.2012 32.7137 18.2012 30.9264C18.2012 29.1358 19.4743 27.688 21.0427 27.688C22.6145 27.6848 23.8876 29.1358 23.8876 30.9264Z" fill="#E95B93"/>
<path d="M29.4983 32.7169C29.4557 33.5818 28.8027 34.2512 28.0415 34.216C27.2835 34.1808 26.7027 33.4472 26.7486 32.5856C26.7946 31.7176 27.4475 31.0481 28.2055 31.0865C28.9635 31.1186 29.541 31.8521 29.4983 32.7169Z" fill="#996228"/>
<path d="M35.1847 31.7689C35.2309 30.905 34.6522 30.1733 33.8921 30.1346C33.132 30.0959 32.4784 30.7648 32.4322 31.6287C32.3861 32.4926 32.9648 33.2243 33.7249 33.263C34.485 33.3017 35.1386 32.6328 35.1847 31.7689Z" fill="#996228"/>
<path d="M12.5904 32.7169C12.6331 33.5818 13.2861 34.2512 14.0473 34.216C14.8053 34.1808 15.3861 33.4472 15.3401 32.5856C15.2975 31.7176 14.6445 31.0481 13.8865 31.0865C13.1253 31.1186 12.5445 31.8521 12.5904 32.7169Z" fill="#996228"/>
<path d="M8.36246 33.2591C9.12074 33.2205 9.69801 32.4889 9.65183 31.625C9.60565 30.7611 8.95351 30.0921 8.19524 30.1307C7.43697 30.1694 6.8597 30.901 6.90588 31.7649C6.95205 32.6288 7.60419 33.2978 8.36246 33.2591Z" fill="#996228"/>
</svg>
