<svg width="30" height="30" viewBox="0 0 30 30" fill="none" xmlns="http://www.w3.org/2000/svg">
<path d="M8.92519 10.1457C7.3342 11.8157 6.80304 13.5204 6.98255 15.854C7.21616 18.8535 10.4523 22.6532 14.3523 22.5662C17.4998 22.4966 19.2925 20.9012 20.1089 19.7407C20.8613 18.6721 21.9015 17.0145 21.6384 14.4921C21.3236 11.4653 18.2056 7.84198 14.4457 7.81961C11.4408 7.79973 10.1473 8.86336 8.92519 10.1457Z" fill="#FF5960"/>
<path d="M5.8388 2.90959C5.8388 2.90959 6.03306 1.84845 6.41913 1.23463C6.8052 0.620804 7.44209 -0.0775108 7.63389 0.00698279C7.82816 0.0914764 8.01996 0.8718 8.74046 2.43742C9.46096 4.00303 10.6757 6.12283 10.6462 7.51946C10.6167 8.91609 10.0929 9.6144 10.0929 9.6144C10.0929 9.6144 8.60521 12.097 5.78962 11.8659C3.50272 11.6795 2.48222 10.9067 1.22811 10.2332C0.704336 9.95238 0.0600694 9.92256 0.00597069 9.64174C-0.0481281 9.36341 0.276464 8.90863 0.532204 8.60794C0.962535 8.10098 1.87484 7.79282 2.23631 7.13924C2.59779 6.48566 2.60025 5.4941 3.1855 4.66159C4.27239 3.12331 5.8388 2.90959 5.8388 2.90959Z" fill="#E0E0E0"/>
<path d="M19.4105 19.2987C18.2179 20.5835 17.5982 22.4076 18.7712 24.5796C19.6884 26.2744 20.8982 26.8708 21.6433 28.0761C22.3884 29.2814 22.2999 30.017 22.4917 29.9996C22.681 29.9822 23.2884 29.3708 23.5983 28.7048C23.9106 28.0413 23.7876 27.4449 24.0999 27.0622C24.4122 26.6795 25.4499 26.6248 26.0548 25.8917C26.6598 25.1586 26.5737 24.5448 27.127 23.9682C27.6803 23.3917 28.4942 23.2152 29.0475 22.5691C29.6008 21.923 30.1024 21.1004 29.9819 20.909C29.8614 20.7177 29.4286 20.8221 28.1475 20.4369C26.8663 20.0517 24.2893 18.3742 22.3688 18.2351C21.0187 18.1357 20.19 18.4612 19.4105 19.2987Z" fill="#E0E0E0"/>
<path d="M9.3496 12.4274C8.26271 14.8354 6.9668 15.6207 6.9668 15.6207C6.9668 15.6207 6.99139 16.1128 7.08975 16.5676C7.20532 17.1019 7.38975 17.5243 7.38975 17.5243C7.38975 17.5243 8.77911 16.488 9.63485 14.9845C10.5644 13.3518 11.1595 11.9701 11.3931 10.7375C11.6267 9.50488 11.7299 8.19772 11.7299 8.19772C11.7299 8.19772 11.3193 8.32694 10.8275 8.58539C10.4365 8.79166 10.2398 8.95567 10.2398 8.95567C10.2398 8.95567 10.257 10.4194 9.3496 12.4274ZM13.4119 7.86223C13.4119 7.86223 13.5964 8.87863 13.1242 10.8195C12.8955 11.7589 12.5193 12.9915 11.8849 14.3533C11.3168 15.576 10.7709 16.4483 10.2963 17.1714C9.18239 18.8737 8.41517 19.3558 8.41517 19.3558C8.41517 19.3558 8.66353 19.7038 8.91681 19.9821C9.17009 20.2604 9.4996 20.5636 9.4996 20.5636C9.4996 20.5636 10.8029 19.8454 12.5267 16.7241C14.2505 13.6028 14.7128 11.6495 14.8996 10.3125C15.089 8.97555 15.057 7.85477 15.057 7.85477C15.057 7.85477 14.6169 7.81501 14.2382 7.81749C13.7685 7.81998 13.4119 7.86223 13.4119 7.86223ZM16.7783 8.2996C16.7783 8.2996 16.6677 12.2385 14.9414 15.6804C13.3357 18.8812 10.8594 21.59 10.8594 21.59C10.8594 21.59 11.2037 21.8161 11.6611 22.0174C12.1824 22.246 12.63 22.3504 12.63 22.3504C12.63 22.3504 13.1931 21.8285 14.0267 20.6233C14.7251 19.6093 15.7357 18.1754 16.6357 16.1004C17.371 14.408 17.6882 13.1182 17.939 12.0198C18.3398 10.2678 18.2784 9.13212 18.2784 9.13212C18.2784 9.13212 18.0054 8.90846 17.5529 8.6674C17.1128 8.42883 16.7783 8.2996 16.7783 8.2996ZM19.7956 10.5213C19.7956 10.5213 19.6997 13.2002 17.9956 17.0919C17.3341 18.6004 16.7562 19.5621 16.1956 20.3872C15.1603 21.908 14.3513 22.5666 14.3513 22.5666C14.3513 22.5666 15.0373 22.5442 15.5808 22.4573C16.1833 22.3603 16.6554 22.2038 16.6554 22.2038C16.6554 22.2038 18.0251 20.7922 19.3259 17.8871C20.5751 15.0989 20.9931 12.3329 20.9931 12.3329C20.9931 12.3329 20.8087 11.8956 20.4595 11.3836C20.189 10.986 19.7956 10.5213 19.7956 10.5213Z" fill="#FE7C84"/>
<path d="M13.0097 9.42502C11.672 9.72075 10.317 10.6701 9.97769 11.5274C9.63343 12.3972 10.2261 12.8296 10.8138 12.6482C11.4015 12.4643 12.1933 11.6069 13.4597 11.3783C14.7261 11.1497 15.8007 11.2764 16.3318 11.423C16.863 11.5697 17.2982 11.5274 17.4089 11.1149C17.5146 10.7222 17.3032 10.1929 16.4105 9.73069C15.4269 9.22373 13.9933 9.20882 13.0097 9.42502Z" fill="white"/>
<path opacity="0.5" d="M21.6409 14.4921C21.3261 11.4653 18.208 7.84198 14.4482 7.81961C11.4408 7.79973 10.1473 8.86584 8.92519 10.1482C7.3342 11.8181 6.80304 13.5229 6.98255 15.8564C7.21616 18.856 10.4523 22.6557 14.3523 22.5687C17.4998 22.4991 19.2925 20.9037 20.1089 19.7432C20.8638 18.6721 21.904 17.0145 21.6409 14.4921ZM19.2949 19.1219C18.5867 20.1259 17.0375 21.5076 14.3129 21.5672C10.9391 21.6418 8.1383 18.354 7.9342 15.757C7.77682 13.7391 8.23666 12.263 9.61372 10.8166C10.6711 9.70581 11.79 8.78632 14.3916 8.80371C17.6449 8.82359 20.3449 11.9598 20.6154 14.5791C20.8466 16.7635 19.9441 18.1974 19.2949 19.1219Z" fill="white"/>
<path d="M7.47889 2.12184C7.25512 2.09699 6.95266 2.70087 6.99692 3.12582C7.04119 3.55077 7.40267 4.22921 7.81086 5.10396C8.29284 6.13777 8.65185 7.5841 9.10678 7.47724C9.55924 7.37038 9.19776 5.94145 8.80677 4.84551C8.41087 3.74958 7.76414 2.15166 7.47889 2.12184ZM6.48053 7.43499C6.84692 7.25607 6.67725 6.44592 6.38954 5.45685C6.10184 4.46778 5.92233 3.99809 5.36658 3.88875C4.8256 3.78189 4.44936 4.10247 4.16166 4.51251C3.87395 4.92255 3.66493 5.40963 3.67969 5.68299C3.69444 5.95636 3.77067 6.14025 4.17641 6.30676C4.41986 6.40616 4.79117 6.52545 5.15511 6.76402C5.5756 7.03738 6.07233 7.63132 6.48053 7.43499ZM1.99771 7.93202C1.60426 7.93202 0.942782 8.44892 1.06327 8.82914C1.19852 9.25658 2.11328 9.23173 3.20018 9.4529C4.91658 9.8033 5.96167 10.2034 6.12151 9.69644C6.22725 9.36095 4.84281 8.79932 3.99936 8.50856C3.36739 8.29484 2.47968 7.93202 1.99771 7.93202Z" fill="white"/>
<path d="M21.3741 19.4535C21.1749 19.8089 23.1618 20.2488 24.2463 20.9446C25.3307 21.6404 25.9356 22.299 26.3488 22.299C26.7619 22.299 27.8266 21.6926 27.7406 21.2577C27.6545 20.8228 26.9561 20.8352 26.6537 20.7433C26.3119 20.6364 24.8192 19.9157 24.3053 19.6871C23.5627 19.3516 21.6938 18.8844 21.3741 19.4535ZM21.2684 21.0589C21.0667 21.2875 21.6495 21.9212 22.6676 23.0196C23.7717 24.2125 24.2979 24.6201 24.7799 24.1355C25.2176 23.6931 24.8561 23.1737 23.961 22.4928C23.3094 21.9958 21.5069 20.7905 21.2684 21.0589ZM20.8872 22.9675C20.5676 23.0843 21.1922 24.6698 21.4012 25.3507C21.6102 26.0341 22.011 26.889 22.4291 26.889C22.8471 26.889 23.2479 26.3696 23.1815 25.8402C23.1151 25.3109 22.2471 24.3815 22.011 24.0907C21.6766 23.6782 21.0963 22.8904 20.8872 22.9675Z" fill="white"/>
</svg>
