<svg width="31" height="31" viewBox="0 0 31 31" fill="none" xmlns="http://www.w3.org/2000/svg">
<path d="M27.1243 9.04167C27.1366 8.95166 27.1366 8.86042 27.1243 8.77042C27.1131 8.69458 27.0914 8.62068 27.0598 8.55083C27.0256 8.48771 26.9868 8.42726 26.9435 8.37C26.8944 8.28831 26.8334 8.21431 26.7627 8.15042L26.6077 8.06C26.5331 8.0044 26.4503 7.96082 26.3623 7.93083H26.1039C26.0252 7.85462 25.9333 7.79335 25.8327 7.75H19.3743C19.0318 7.75 18.7032 7.88609 18.461 8.12832C18.2188 8.37056 18.0827 8.6991 18.0827 9.04167C18.0827 9.38424 18.2188 9.71278 18.461 9.95501C18.7032 10.1972 19.0318 10.3333 19.3743 10.3333H23.0298L17.8631 16.4171L12.2831 13.0975C12.0188 12.9403 11.7071 12.8826 11.404 12.9346C11.1009 12.9867 10.8264 13.1452 10.6298 13.3817L4.17143 21.1317C4.06267 21.2622 3.98072 21.4129 3.93029 21.5751C3.87986 21.7374 3.86193 21.908 3.87753 22.0771C3.89312 22.2463 3.94194 22.4107 4.02119 22.561C4.10044 22.7113 4.20855 22.8445 4.33934 22.9529C4.57173 23.1455 4.86421 23.2506 5.16601 23.25C5.35577 23.2503 5.54327 23.2088 5.71517 23.1284C5.88707 23.0481 6.03915 22.9308 6.16059 22.785L11.9085 15.8875L17.4239 19.1942C17.6855 19.3493 17.9935 19.4072 18.2936 19.3576C18.5937 19.308 18.8666 19.154 19.0643 18.9229L24.541 12.5292V15.5C24.541 15.8426 24.6771 16.1711 24.9193 16.4133C25.1616 16.6556 25.4901 16.7917 25.8327 16.7917C26.1753 16.7917 26.5038 16.6556 26.746 16.4133C26.9883 16.1711 27.1243 15.8426 27.1243 15.5V9.04167Z" fill="#939393"/>
</svg>
