<svg width="30" height="30" viewBox="0 0 30 30" fill="none" xmlns="http://www.w3.org/2000/svg">
<path d="M24.2801 23.9338L20.0301 19.6963C21.4013 17.9494 22.1453 15.7921 22.1426 13.5713C22.1426 11.5935 21.5561 9.66008 20.4573 8.01559C19.3585 6.3711 17.7967 5.08937 15.9694 4.3325C14.1422 3.57562 12.1315 3.37759 10.1917 3.76344C8.25187 4.14929 6.47004 5.1017 5.07151 6.50023C3.67299 7.89875 2.72058 9.68058 2.33473 11.6204C1.94888 13.5602 2.14691 15.5709 2.90379 17.3981C3.66066 19.2254 4.94239 20.7872 6.58688 21.886C8.23137 22.9848 10.1648 23.5713 12.1426 23.5713C14.3634 23.5741 16.5207 22.83 18.2676 21.4588L22.5051 25.7088C22.6213 25.826 22.7595 25.9189 22.9119 25.9824C23.0642 26.0459 23.2276 26.0785 23.3926 26.0785C23.5576 26.0785 23.721 26.0459 23.8733 25.9824C24.0256 25.9189 24.1639 25.826 24.2801 25.7088C24.3972 25.5926 24.4902 25.4543 24.5537 25.302C24.6172 25.1497 24.6498 24.9863 24.6498 24.8213C24.6498 24.6563 24.6172 24.4929 24.5537 24.3406C24.4902 24.1882 24.3972 24.05 24.2801 23.9338ZM4.64258 13.5713C4.64258 12.0879 5.08245 10.6379 5.90656 9.40452C6.73067 8.17115 7.90201 7.20985 9.27246 6.6422C10.6429 6.07454 12.1509 5.92601 13.6058 6.2154C15.0606 6.50479 16.397 7.2191 17.4459 8.26799C18.4948 9.31689 19.2091 10.6533 19.4985 12.1081C19.7879 13.563 19.6393 15.071 19.0717 16.4414C18.504 17.8119 17.5427 18.9832 16.3094 19.8073C15.076 20.6314 13.6259 21.0713 12.1426 21.0713C10.1535 21.0713 8.2458 20.2811 6.83928 18.8746C5.43276 17.4681 4.64258 15.5604 4.64258 13.5713Z" fill="#FF7DD4"/>
</svg>
