<svg width="76" height="76" viewBox="0 0 76 76" fill="none" xmlns="http://www.w3.org/2000/svg">
<path d="M61.75 17.2188H53.203L48.9844 10.8864C48.8214 10.6422 48.6007 10.442 48.3417 10.3037C48.0827 10.1655 47.7936 10.0933 47.5 10.0938H28.5C28.2064 10.0933 27.9173 10.1655 27.6583 10.3037C27.3993 10.442 27.1786 10.6422 27.0156 10.8864L22.7941 17.2188H14.25C12.5178 17.2188 10.8566 17.9069 9.63171 19.1317C8.40686 20.3566 7.71875 22.0178 7.71875 23.75V57C7.71875 58.7322 8.40686 60.3934 9.63171 61.6183C10.8566 62.8431 12.5178 63.5312 14.25 63.5312H61.75C63.4822 63.5312 65.1434 62.8431 66.3683 61.6183C67.5931 60.3934 68.2812 58.7322 68.2812 57V23.75C68.2812 22.0178 67.5931 20.3566 66.3683 19.1317C65.1434 17.9069 63.4822 17.2188 61.75 17.2188ZM64.7188 57C64.7188 57.7874 64.406 58.5425 63.8492 59.0992C63.2925 59.656 62.5374 59.9688 61.75 59.9688H14.25C13.4626 59.9688 12.7075 59.656 12.1508 59.0992C11.594 58.5425 11.2812 57.7874 11.2812 57V23.75C11.2812 22.9626 11.594 22.2075 12.1508 21.6508C12.7075 21.094 13.4626 20.7813 14.25 20.7813H23.75C24.0436 20.7817 24.3327 20.7095 24.5917 20.5713C24.8507 20.433 25.0714 20.2328 25.2344 19.9886L29.453 13.6563H46.5441L50.7656 19.9886C50.9286 20.2328 51.1493 20.433 51.4083 20.5713C51.6673 20.7095 51.9564 20.7817 52.25 20.7813H61.75C62.5374 20.7813 63.2925 21.094 63.8492 21.6508C64.406 22.2075 64.7188 22.9626 64.7188 23.75V57ZM38 26.7188C35.5339 26.7188 33.1232 27.45 31.0727 28.8201C29.0223 30.1902 27.4241 32.1376 26.4804 34.4159C25.5366 36.6943 25.2897 39.2013 25.7708 41.62C26.2519 44.0387 27.4395 46.2605 29.1833 48.0042C30.927 49.748 33.1488 50.9356 35.5675 51.4167C37.9862 51.8978 40.4932 51.6509 42.7716 50.7071C45.0499 49.7634 46.9973 48.1652 48.3674 46.1148C49.7375 44.0643 50.4688 41.6536 50.4688 39.1875C50.4688 35.8806 49.1551 32.7091 46.8167 30.3708C44.4784 28.0324 41.3069 26.7188 38 26.7188ZM38 48.0938C36.2385 48.0938 34.5166 47.5714 33.052 46.5928C31.5873 45.6141 30.4458 44.2232 29.7717 42.5958C29.0976 40.9684 28.9212 39.1776 29.2649 37.45C29.6085 35.7223 30.4568 34.1354 31.7023 32.8898C32.9479 31.6443 34.5348 30.796 36.2625 30.4524C37.9901 30.1087 39.7809 30.2851 41.4083 30.9592C43.0357 31.6333 44.4266 32.7748 45.4053 34.2395C46.3839 35.7041 46.9062 37.426 46.9062 39.1875C46.9062 41.5496 45.9679 43.8149 44.2977 45.4852C42.6274 47.1554 40.3621 48.0938 38 48.0938Z" fill="white"/>
</svg>
