<svg width="45" height="45" viewBox="0 0 45 45" fill="none" xmlns="http://www.w3.org/2000/svg">
<path d="M9.375 39.375C8.34375 39.375 7.46125 39.0081 6.7275 38.2744C5.99375 37.5406 5.62625 36.6575 5.625 35.625V9.375C5.625 8.34375 5.9925 7.46125 6.7275 6.7275C7.4625 5.99375 8.345 5.62625 9.375 5.625H30L39.375 15V35.625C39.375 36.6562 39.0081 37.5394 38.2744 38.2744C37.5406 39.0094 36.6575 39.3763 35.625 39.375H9.375ZM13.125 31.875H31.875V28.125H13.125V31.875ZM13.125 24.375H31.875V20.625H13.125V24.375ZM28.125 16.875H35.625L28.125 9.375V16.875ZM13.125 16.875H22.5V13.125H13.125V16.875Z" fill="black"/>
</svg>
