<svg width="16" height="15" viewBox="0 0 16 15" fill="none" xmlns="http://www.w3.org/2000/svg">
<path d="M5.6 14.2611C5.38783 14.2611 5.18434 14.1908 5.03431 14.0658C4.88429 13.9408 4.8 13.7712 4.8 13.5944V11.5944H1.6C1.17565 11.5944 0.768687 11.4539 0.468629 11.2039C0.168571 10.9538 0 10.6147 0 10.2611V2.26107C0 1.90745 0.168571 1.56831 0.468629 1.31826C0.768687 1.06821 1.17565 0.927734 1.6 0.927734H14.4C14.8243 0.927734 15.2313 1.06821 15.5314 1.31826C15.8314 1.56831 16 1.90745 16 2.26107V10.2611C16 10.6147 15.8314 10.9538 15.5314 11.2039C15.2313 11.4539 14.8243 11.5944 14.4 11.5944H9.52L6.56 14.0677C6.4 14.1944 6.2 14.2611 6 14.2611H5.6ZM6.4 10.2611V12.3144L8.864 10.2611H14.4V2.26107H1.6V10.2611H6.4Z" fill="black"/>
</svg>
