<svg width="53" height="52" viewBox="0 0 53 52" fill="none" xmlns="http://www.w3.org/2000/svg">
<path d="M37.9114 20.4668L43.8532 38.7237L28.7979 36.8102L37.9114 20.4668Z" fill="#939393"/>
<path d="M43.8539 39.2029C43.8332 39.2029 43.8125 39.2029 43.7918 39.1989L28.7323 37.2854C28.5708 37.2651 28.4342 37.1676 28.3596 37.0254C28.2851 36.8832 28.2893 36.7167 28.3638 36.5786L37.4814 20.2351C37.5767 20.0686 37.7671 19.9711 37.9576 19.9873C38.1522 20.0036 38.3179 20.1336 38.3758 20.3164L44.2721 38.4432C44.33 38.5204 44.3632 38.6179 44.3632 38.7195C44.3632 38.9836 44.1437 39.1989 43.8746 39.1989C43.8746 39.2029 43.8621 39.2029 43.8539 39.2029ZM29.5646 36.4242L43.1541 38.1507L37.7961 21.6773L29.5646 36.4242ZM16.6417 14.182C16.6417 14.7703 16.4035 15.3345 15.9795 15.7504C15.5555 16.1664 14.9805 16.4001 14.3809 16.4001C13.1346 16.4001 12.1201 15.4048 12.1201 14.182C12.1201 12.9551 13.1304 11.9639 14.3809 11.9639C15.6314 11.9639 16.6417 12.9551 16.6417 14.182Z" fill="#939393"/>
<path d="M14.3802 16.8755C13.6514 16.8744 12.9527 16.5898 12.4373 16.0842C11.922 15.5786 11.632 14.8931 11.6309 14.178C11.632 13.4629 11.922 12.7774 12.4373 12.2717C12.9527 11.7661 13.6514 11.4815 14.3802 11.4805C15.1091 11.4815 15.8078 11.7661 16.3231 12.2717C16.8385 12.7774 17.1285 13.4629 17.1296 14.178C17.1285 14.8931 16.8385 15.5786 16.3231 16.0842C15.8078 16.5898 15.1091 16.8744 14.3802 16.8755ZM14.3802 12.4433C13.403 12.4433 12.608 13.2233 12.608 14.182C12.608 15.1408 13.403 15.9208 14.3802 15.9208C15.3574 15.9208 16.1566 15.1408 16.1566 14.182C16.1566 13.2233 15.3574 12.4433 14.3802 12.4433ZM38.7478 11.9639C39.9941 12.037 40.9465 13.0892 40.872 14.312C40.8016 15.5348 39.725 16.4652 38.4828 16.3961C38.1863 16.3794 37.8961 16.3055 37.6288 16.1786C37.3615 16.0517 37.1223 15.8743 36.925 15.6565C36.7277 15.4388 36.5761 15.185 36.4789 14.9096C36.3817 14.6343 36.3409 14.3429 36.3587 14.052C36.4332 12.8252 37.5015 11.8908 38.7478 11.9639Z" fill="#939393"/>
<path d="M38.6153 16.8753L38.4538 16.8712C37.7209 16.8306 37.046 16.5097 36.5616 15.9734C36.321 15.7092 36.136 15.4009 36.0173 15.0662C35.8987 14.7315 35.8486 14.3771 35.8701 14.0234C35.9119 13.3368 36.2193 12.6917 36.7295 12.2198C37.2397 11.7479 37.9142 11.4849 38.6153 11.4844L38.7768 11.4884C40.2923 11.5778 41.4516 12.8616 41.3605 14.3444C41.3175 15.0299 41.0095 15.6735 40.4993 16.1438C39.9892 16.6142 39.3153 16.8758 38.6153 16.8753ZM38.7105 12.4391C37.6754 12.4391 36.9011 13.1581 36.8473 14.0763C36.8183 14.5394 36.9756 14.9862 37.2903 15.3356C37.605 15.685 38.0356 15.8881 38.5118 15.9166L38.6153 15.9206C39.5511 15.9206 40.3295 15.2016 40.3834 14.2834C40.4413 13.3247 39.6919 12.5 38.7147 12.4391H38.7105ZM15.0841 20.4666L9.14648 38.7234L24.2018 36.81L15.0841 20.4666Z" fill="#939393"/>
<path d="M9.14673 39.2028C9.00595 39.2028 8.86517 39.1419 8.76993 39.0322C8.66228 38.9063 8.62915 38.7356 8.67884 38.5813L14.6165 20.3244C14.6745 20.1416 14.8401 20.0116 15.0347 19.9953C15.2459 19.975 15.4156 20.0725 15.5109 20.2431L24.6285 36.5866C24.7031 36.7247 24.7072 36.8913 24.6327 37.0335C24.5623 37.1756 24.4215 37.2691 24.26 37.2935L9.2047 39.2069C9.18814 39.2028 9.16743 39.2028 9.14673 39.2028ZM15.2045 21.6772L9.84235 38.1547L23.4319 36.4281L15.2045 21.6772Z" fill="#939393"/>
<path d="M29.8834 11.6833C29.8834 13.5155 28.3679 15.0024 26.5005 15.0024C24.633 15.0024 23.1134 13.5155 23.1134 11.6833C23.1134 9.84707 24.6289 8.36426 26.5005 8.36426C28.372 8.36426 29.8834 9.84707 29.8834 11.6833ZM5.56961 14.1818C5.56961 15.6361 4.36883 16.8143 2.88234 16.8143C1.4 16.8143 0.199219 15.6361 0.199219 14.1818C0.199219 12.7233 1.4 11.5452 2.88234 11.5452C4.36883 11.5452 5.56961 12.7233 5.56961 14.1818ZM47.4272 14.1818C47.4272 15.6361 48.628 16.8143 50.1145 16.8143C51.5968 16.8143 52.8017 15.6361 52.8017 14.1818C52.8017 13.4825 52.5186 12.8119 52.0146 12.3174C51.5107 11.823 50.8272 11.5452 50.1145 11.5452C49.4017 11.5452 48.7182 11.823 48.2143 12.3174C47.7103 12.8119 47.4272 13.4825 47.4272 14.1818Z" fill="#D9D9D9"/>
<path d="M29.8834 11.6833C29.8834 13.5155 28.3679 15.0024 26.5005 15.0024C24.633 15.0024 23.1134 13.5155 23.1134 11.6833C23.1134 9.84707 24.6289 8.36426 26.5005 8.36426C28.372 8.36426 29.8834 9.84707 29.8834 11.6833ZM5.56961 14.1818C5.56961 15.6361 4.36883 16.8143 2.88234 16.8143C1.4 16.8143 0.199219 15.6361 0.199219 14.1818C0.199219 12.7233 1.4 11.5452 2.88234 11.5452C4.36883 11.5452 5.56961 12.7233 5.56961 14.1818ZM47.4272 14.1818C47.4272 15.6361 48.628 16.8143 50.1145 16.8143C51.5968 16.8143 52.8017 15.6361 52.8017 14.1818C52.8017 13.4825 52.5186 12.8119 52.0146 12.3174C51.5107 11.823 50.8272 11.5452 50.1145 11.5452C49.4017 11.5452 48.7182 11.823 48.2143 12.3174C47.7103 12.8119 47.4272 13.4825 47.4272 14.1818Z" fill="#D9D9D9"/>
<path d="M49.48 21.7057C49.3919 21.6673 49.2942 21.6552 49.1991 21.6711C49.1041 21.687 49.016 21.7302 48.9458 21.7951L36.1265 33.6007L26.9798 20.1986C26.8887 20.0645 26.7397 19.9873 26.574 19.9873C26.4126 19.9873 26.2594 20.0645 26.1683 20.1945L16.9802 33.6007L4.16499 21.7911C4.09488 21.7261 4.00675 21.683 3.9117 21.6671C3.81665 21.6512 3.71893 21.6632 3.63085 21.7017C3.4528 21.7789 3.33686 21.9576 3.34514 22.1486L3.871 41.4536C3.871 45.6501 13.8333 48.9407 26.5533 48.9407C39.2733 48.9407 49.2357 45.6501 49.2357 41.4657L49.7616 22.1486C49.7698 21.9617 49.658 21.7829 49.48 21.7057Z" fill="#D9D9D9"/>
<mask id="mask0_2139_1158" style="mask-type:luminance" maskUnits="userSpaceOnUse" x="3" y="19" width="47" height="30">
<path d="M49.48 21.7057C49.3919 21.6673 49.2942 21.6552 49.1991 21.6711C49.1041 21.687 49.016 21.7302 48.9458 21.7951L36.1265 33.6007L26.9798 20.1986C26.8887 20.0645 26.7397 19.9873 26.574 19.9873C26.4126 19.9873 26.2594 20.0645 26.1683 20.1945L16.9802 33.6007L4.16499 21.7911C4.09488 21.7261 4.00675 21.683 3.9117 21.6671C3.81665 21.6512 3.71893 21.6632 3.63085 21.7017C3.4528 21.7789 3.33686 21.9576 3.34514 22.1486L3.871 41.4536C3.871 45.6501 13.8333 48.9407 26.5533 48.9407C39.2733 48.9407 49.2357 45.6501 49.2357 41.4657L49.7616 22.1486C49.7698 21.9617 49.658 21.7829 49.48 21.7057Z" fill="white"/>
</mask>
<g mask="url(#mask0_2139_1158)">
<path d="M49.6496 31.7117L49.6538 31.7157L49.4095 39.3735H49.4053C47.6663 39.3207 46.3164 37.5657 46.3827 35.4492C46.4489 33.3285 47.9106 31.6589 49.6496 31.7117ZM3.46508 31.7117L3.46094 31.7157L3.70109 39.3735H3.70938C5.4443 39.3207 6.79828 37.5657 6.72789 35.4492C6.66164 33.3285 5.2 31.6589 3.46508 31.7117Z" fill="#D7598B"/>
</g>
<path d="M30.1435 39.2234C30.1435 41.4903 28.5369 43.3306 26.5536 43.3306C24.5743 43.3306 22.9678 41.4903 22.9678 39.2234C22.9678 36.9525 24.5743 35.1162 26.5536 35.1162C28.5369 35.1122 30.1435 36.9525 30.1435 39.2234Z" fill="#D7598B"/>
<path d="M37.224 41.4946C37.1702 42.5915 36.3462 43.4406 35.3856 43.3959C34.4291 43.3512 33.6962 42.4209 33.7542 41.3281C33.8122 40.2271 34.6361 39.3781 35.5926 39.4268C36.5491 39.4674 37.2779 40.3977 37.224 41.4946Z" fill="#939393"/>
<path d="M44.4002 40.2921C44.4585 39.1964 43.7282 38.2684 42.769 38.2193C41.8099 38.1702 40.9851 39.0186 40.9268 40.1143C40.8685 41.2099 41.5988 42.138 42.558 42.1871C43.5171 42.2362 44.3419 41.3878 44.4002 40.2921Z" fill="#939393"/>
<path d="M15.887 41.4946C15.9408 42.5915 16.7648 43.4406 17.7254 43.3959C18.6819 43.3512 19.4148 42.4209 19.3568 41.3281C19.303 40.2271 18.479 39.3781 17.5226 39.4268C16.5619 39.4674 15.829 40.3977 15.887 41.4946Z" fill="#939393"/>
<path d="M10.552 42.1822C11.5088 42.1333 12.2373 41.2053 12.179 40.1097C12.1208 39.014 11.2978 38.1655 10.341 38.2145C9.38409 38.2635 8.65564 39.1914 8.71391 40.2871C8.77218 41.3827 9.59511 42.2312 10.552 42.1822Z" fill="#939393"/>
</svg>
